<svg width="93" height="101" viewBox="0 0 93 101" fill="none" xmlns="http://www.w3.org/2000/svg">
<g filter="url(#filter0_d_286_2655)">
<path d="M43.8901 80.3782L14.3321 63.4415C13.6234 63.0339 13.035 62.4489 12.6258 61.7449C12.2165 61.0408 12.0007 60.2425 12 59.4298V25.5702C11.9983 24.7551 12.2129 23.954 12.6223 23.2474C13.0317 22.5408 13.6214 21.9535 14.3321 21.5448L43.8901 4.62184C44.6013 4.21447 45.408 4 46.2291 4C47.0503 4 47.857 4.21447 48.5681 4.62184L78.1124 21.5585C78.8231 21.9672 79.4128 22.5544 79.8221 23.2611C80.2315 23.9677 80.4461 24.7688 80.4444 25.5839V59.4298C80.4461 60.2449 80.2315 61.046 79.8221 61.7526C79.4128 62.4593 78.8231 63.0465 78.1124 63.4552L48.5681 80.3782C47.857 80.7855 47.0503 81 46.2291 81C45.408 81 44.6013 80.7855 43.8901 80.3782Z" fill="#25252C"/>
<path d="M50.0113 28.0934C49.9071 28.0501 49.7864 28.0977 49.7418 28.2017C49.6975 28.3056 49.7467 28.4252 49.8514 28.4691C51.2862 29.0713 52.3928 30.256 52.8875 31.7197C52.916 31.8052 52.9963 31.859 53.0823 31.859C53.1039 31.859 53.1259 31.8557 53.1478 31.8485C53.2554 31.8127 53.3131 31.697 53.277 31.5903C52.7454 30.0156 51.5547 28.7411 50.0113 28.0934ZM55.5237 31.2836C54.8386 28.731 52.9277 26.6872 50.4119 25.8165C50.3047 25.7801 50.1875 25.8354 50.1501 25.942C50.1122 26.0484 50.169 26.1647 50.2762 26.2018C52.6635 27.0279 54.4765 28.9668 55.1262 31.3885C55.1507 31.48 55.2338 31.5402 55.325 31.5402C55.3424 31.5402 55.3603 31.538 55.3781 31.5334C55.4875 31.5042 55.553 31.3924 55.5237 31.2836ZM47.7373 29.807C47.3643 29.807 46.9864 29.8689 46.6121 29.9918C46.0812 28.9692 45.0174 28.3184 43.8511 28.3184C42.3176 28.3184 41.0326 29.4247 40.7953 30.919C39.2193 31.0807 38.0089 32.3923 38.0089 33.9769C38.0089 35.5222 39.1711 36.8158 40.6968 37.0217L40.6873 37.0619H47.7373C49.7531 37.0619 51.393 35.4348 51.393 33.4346C51.3928 31.4343 49.7529 29.807 47.7373 29.807ZM47.7373 36.6537H41.2076L41.2084 36.6514L40.9631 36.6375C39.5373 36.5558 38.4201 35.387 38.4201 33.9769C38.4201 32.5531 39.5478 31.3831 40.9877 31.3136L41.164 31.3051L41.1821 31.1308C41.3242 29.76 42.4715 28.7266 43.8513 28.7266C44.9189 28.7266 45.8872 29.3551 46.3185 30.3278L46.3976 30.5058L46.5803 30.4363C46.9658 30.2897 47.3553 30.2154 47.7377 30.2154C49.5265 30.2154 50.9822 31.6597 50.9822 33.4348C50.9818 35.2096 49.5262 36.6537 47.7373 36.6537Z" fill="#BB0E8B"/>
<path d="M30.4502 47.8093L33.6076 51.579C33.6943 51.665 33.7637 51.7683 33.7637 51.8372C33.7637 51.906 33.7463 51.9576 33.677 51.9921L32.2023 52.8011C32.133 52.8355 32.0636 52.8699 31.9942 52.8699C31.9248 52.8699 31.838 52.7667 31.786 52.6978L28.6113 48.5839H28.5766V52.3363C28.5766 52.5257 28.5419 52.5773 28.3337 52.5773H26.6162C26.408 52.5773 26.3733 52.5257 26.3733 52.3363V40.7691C26.3733 40.5282 26.4948 40.4937 26.7029 40.4593L28.1602 40.1667C28.2122 40.1495 28.3857 40.1151 28.4378 40.1151C28.5419 40.1151 28.5766 40.1839 28.5766 40.4765V47.2929L31.9074 43.9536C31.9595 43.8847 32.0983 43.7814 32.1503 43.7814C32.2544 43.7814 32.3238 43.8675 32.4626 43.9708L33.33 44.6765C33.3994 44.7454 33.4167 44.797 33.4167 44.8659C33.4167 44.9347 33.3473 45.0036 33.2606 45.0896L30.4502 47.8093ZM41.5531 52.2675L40.2346 52.8011C40.1652 52.8183 40.0785 52.8699 40.0091 52.8699C39.8529 52.8699 39.5927 52.2675 39.506 51.8372C39.159 52.1814 38.5518 52.8699 37.2507 52.8699C35.6547 52.8699 34.6485 51.8372 34.6485 50.2191C34.6485 47.3101 37.8058 47.3101 39.1764 47.3101V46.7765C39.1764 46.0019 39.0376 45.5027 37.9446 45.5027C36.9731 45.5027 36.019 46.0191 35.7934 46.0191C35.7067 46.0191 35.6373 45.9159 35.62 45.847L35.273 44.797C35.2383 44.7282 35.221 44.6593 35.221 44.5905C35.221 44.1946 36.9384 43.7814 38.2743 43.7814C40.4428 43.7814 41.2582 44.7626 41.2582 46.5527V49.8749C41.2582 51.5445 41.7092 51.7683 41.7092 52.1126C41.7092 52.1814 41.6398 52.2331 41.5531 52.2675ZM39.1764 50.615V48.7216C38.7427 48.7216 36.7303 48.5839 36.7303 50.0986C36.7303 50.7699 37.216 51.2691 37.8752 51.2691C38.5171 51.2691 38.9682 50.8216 39.1764 50.615ZM46.4453 44.315V52.3363C46.4453 52.5257 46.4106 52.5773 46.2024 52.5773H44.4849C44.2768 52.5773 44.2421 52.5257 44.2421 52.3363V45.6749H42.9062C42.6981 45.6749 42.6634 45.6232 42.6634 45.4339V44.315C42.6634 44.1257 42.6981 44.0741 42.9062 44.0741H46.2024C46.4106 44.0741 46.4453 44.1257 46.4453 44.315ZM46.7576 41.5265C46.7576 42.3183 46.1157 42.9552 45.335 42.9552C44.537 42.9552 43.8951 42.3183 43.8951 41.5265C43.8951 40.7347 44.537 40.1151 45.335 40.1151C46.1157 40.1151 46.7576 40.7347 46.7576 41.5265ZM54.3908 44.8486L53.9918 45.7954C53.9571 45.8814 53.8704 45.9503 53.853 45.9503C53.801 45.9503 52.9509 45.5027 51.8406 45.5027C51.1814 45.5027 50.6956 45.7437 50.6956 46.329C50.6956 47.2585 52.257 47.1896 53.4887 47.9986C54.1653 48.4462 54.651 49.1003 54.651 50.0986C54.651 51.6822 53.5234 52.8699 51.6845 52.8699C50.4007 52.8699 48.423 52.2158 48.423 51.7511C48.423 51.6995 48.4924 51.5962 48.5097 51.5273L48.8914 50.5462C48.9261 50.4601 48.9608 50.3913 49.0302 50.3913C49.0996 50.3913 50.4354 51.1486 51.511 51.1486C52.0835 51.1486 52.5692 50.9077 52.5692 50.288C52.5692 49.2896 50.8691 49.2896 49.7241 48.5322C49.2037 48.188 48.7006 47.5855 48.7006 46.5872C48.7006 45.0208 49.8976 43.7814 51.7712 43.7814C52.8295 43.7814 54.4776 44.229 54.4776 44.6249C54.4776 44.6765 54.4255 44.7798 54.3908 44.8486ZM62.4578 50.6322L62.8915 51.665C62.9262 51.7167 62.9435 51.7855 62.9435 51.8544C62.9435 52.3019 61.2087 52.8699 59.8382 52.8699C57.5482 52.8699 55.9522 51.579 55.9522 48.4118C55.9522 45.6749 57.4268 43.7814 59.7514 43.7814C62.7006 43.7814 63.2211 46.3978 63.2211 48.4806C63.2211 48.8077 63.1517 48.9109 62.8221 48.9109H58.1554C58.1554 49.8749 58.433 51.0626 60.0637 51.0626C61.3128 51.0626 62.0241 50.4945 62.2669 50.4945C62.3537 50.4945 62.4231 50.5634 62.4578 50.6322ZM58.1554 47.3101H60.8791C60.8791 46.6044 60.827 45.3823 59.63 45.3823C58.2768 45.3823 58.2074 46.8282 58.1554 47.3101ZM67.3326 46.5872V52.3363C67.3326 52.5257 67.2979 52.5773 67.0898 52.5773H65.3723C65.1641 52.5773 65.1294 52.5257 65.1294 52.3363V47.138C65.1294 45.2445 64.6784 44.9347 64.6784 44.5388C64.6784 44.47 64.7477 44.4183 64.8345 44.3839L66.153 43.8503C66.2224 43.8331 66.3091 43.7814 66.3785 43.7814C66.5867 43.7814 66.9336 44.556 67.0204 45.1413C67.35 44.7454 67.9919 43.7814 69.1716 43.7814C69.6747 43.7814 70.1778 43.9536 70.1778 44.1773C70.1778 44.2462 70.1604 44.315 70.1431 44.3495L69.6053 45.7954C69.5879 45.847 69.5359 45.9503 69.4665 45.9503C69.3624 45.9503 69.0501 45.7609 68.6511 45.7609C68.1133 45.7609 67.5582 46.3462 67.3326 46.5872Z" fill="white"/>
<path d="M29.8542 55.8016L29.2257 56.8448V57.422H29.0645V56.8448L28.4267 55.8016H28.5949L29.1463 56.6732L29.686 55.8016H29.8542ZM31.1474 55.8978C31.2775 55.9712 31.3806 56.0705 31.457 56.1957C31.5333 56.3208 31.5715 56.4584 31.5715 56.6083C31.5715 56.7582 31.5333 56.8965 31.457 57.0233C31.3806 57.15 31.2775 57.2504 31.1474 57.3246C31.0173 57.3988 30.8744 57.4359 30.7187 57.4359C30.5629 57.4359 30.42 57.3988 30.2899 57.3246C30.1599 57.2504 30.0567 57.15 29.9804 57.0233C29.904 56.8965 29.8659 56.7582 29.8659 56.6083C29.8659 56.4584 29.904 56.3208 29.9804 56.1957C30.0567 56.0705 30.1599 55.9712 30.2899 55.8978C30.42 55.8244 30.5629 55.7877 30.7187 55.7877C30.8744 55.7877 31.0173 55.8244 31.1474 55.8978ZM30.3752 56.0218C30.2693 56.0821 30.1852 56.164 30.1229 56.2675C30.0606 56.3711 30.0294 56.4847 30.0294 56.6083C30.0294 56.7319 30.0606 56.8463 30.1229 56.9514C30.1852 57.0565 30.2693 57.1395 30.3752 57.2006C30.4811 57.2616 30.5964 57.2922 30.721 57.2922C30.8441 57.2922 30.9581 57.2616 31.0633 57.2006C31.1684 57.1395 31.2521 57.0565 31.3144 56.9514C31.3768 56.8463 31.4079 56.7319 31.4079 56.6083C31.4079 56.4847 31.3768 56.3711 31.3144 56.2675C31.2521 56.164 31.1684 56.0821 31.0633 56.0218C30.9581 55.9615 30.8441 55.9314 30.721 55.9314C30.5964 55.9314 30.4811 55.9615 30.3752 56.0218ZM32.1871 57.1531C32.2782 57.2458 32.4048 57.2922 32.5668 57.2922C32.7287 57.2922 32.8549 57.2458 32.9453 57.1531C33.0356 57.0603 33.0808 56.9305 33.0808 56.7636V55.7992H33.242V56.7636C33.242 56.9738 33.1824 57.1384 33.0632 57.2574C32.9441 57.3764 32.7786 57.4359 32.5668 57.4359C32.3549 57.4359 32.189 57.3764 32.0691 57.2574C31.9492 57.1384 31.8892 56.9738 31.8892 56.7636V55.7992H32.0504V56.7636C32.0504 56.9305 32.096 57.0603 32.1871 57.1531ZM34.7957 57.422L34.4429 56.8934C34.393 56.8965 34.3549 56.8981 34.3284 56.8981H33.8798V57.422H33.7186V55.8016H34.3284C34.5324 55.8016 34.6901 55.8483 34.8015 55.9418C34.9129 56.0353 34.9686 56.1678 34.9686 56.3394C34.9686 56.4738 34.9359 56.5859 34.8704 56.6755C34.805 56.7652 34.7116 56.8278 34.5901 56.8633L34.9826 57.422H34.7957ZM34.3284 56.7543C34.4842 56.7543 34.6041 56.7192 34.6882 56.6489C34.7723 56.5785 34.8144 56.4769 34.8144 56.344C34.8144 56.2142 34.7723 56.1153 34.6882 56.0473C34.6041 55.9793 34.4842 55.9453 34.3284 55.9453H33.8798V56.7543H34.3284ZM37.1227 55.9418C37.2333 56.0353 37.2886 56.1678 37.2886 56.3394C37.2886 56.5171 37.2333 56.6547 37.1227 56.752C37.0121 56.8494 36.8556 56.8981 36.6531 56.8981H36.2115V57.422H36.0503V55.8016H36.6531C36.8556 55.8016 37.0121 55.8483 37.1227 55.9418ZM37.0071 56.6489C37.092 56.5785 37.1344 56.4769 37.1344 56.344C37.1344 56.2142 37.0923 56.1153 37.0082 56.0473C36.9241 55.9793 36.8034 55.9453 36.6461 55.9453H36.2115V56.7543H36.6461C36.8019 56.7543 36.9222 56.7192 37.0071 56.6489ZM38.6881 57.422L38.3353 56.8934C38.2855 56.8965 38.2473 56.8981 38.2208 56.8981H37.7722V57.422H37.611V55.8016H38.2208C38.4249 55.8016 38.5826 55.8483 38.6939 55.9418C38.8053 56.0353 38.861 56.1678 38.861 56.3394C38.861 56.4738 38.8283 56.5859 38.7629 56.6755C38.6975 56.7652 38.604 56.8278 38.4825 56.8633L38.875 57.422H38.6881ZM38.2208 56.7543C38.3766 56.7543 38.4965 56.7192 38.5806 56.6489C38.6647 56.5785 38.7068 56.4769 38.7068 56.344C38.7068 56.2142 38.6647 56.1153 38.5806 56.0473C38.4965 55.9793 38.3766 55.9453 38.2208 55.9453H37.7722V56.7543H38.2208ZM39.3002 55.8016H39.4615V57.422H39.3002V55.8016ZM39.7348 55.8016H39.9077L40.4895 57.2458L41.0689 55.8016H41.2394L40.5689 57.422H40.4007L39.7348 55.8016ZM42.7324 57.422L42.5385 56.9908H41.632L41.4404 57.422H41.2675L42.0034 55.8016H42.1717L42.9076 57.422H42.7324ZM41.695 56.8471H42.4754L42.0829 55.9708L41.695 56.8471ZM42.945 55.7992H44.1856V55.9453H43.6459V57.422H43.4847V55.9453H42.945V55.7992ZM44.4683 55.8016H45.5618V55.9453H44.6296V56.5248H45.4636V56.6686H44.6296V57.2783H45.5921V57.422H44.4683V55.8016ZM47.5898 55.9824C47.5041 55.9468 47.4153 55.9291 47.3234 55.9291C47.1972 55.9291 47.0816 55.9592 46.9765 56.0195C46.8713 56.0797 46.788 56.162 46.7265 56.2664C46.6649 56.3707 46.6342 56.4847 46.6342 56.6083C46.6342 56.7319 46.6649 56.8455 46.7265 56.9491C46.788 57.0526 46.8713 57.1349 46.9765 57.196C47.0816 57.257 47.1972 57.2875 47.3234 57.2875C47.4138 57.2875 47.5018 57.2701 47.5874 57.2354C47.6731 57.2006 47.7494 57.1523 47.8164 57.0905L47.9145 57.1948C47.8335 57.269 47.7408 57.3277 47.6365 57.371C47.5321 57.4143 47.4254 57.4359 47.3164 57.4359C47.1622 57.4359 47.0205 57.3988 46.8912 57.3246C46.7619 57.2504 46.6595 57.15 46.5839 57.0233C46.5084 56.8965 46.4706 56.7582 46.4706 56.6083C46.4706 56.4584 46.5088 56.3208 46.5851 56.1957C46.6614 56.0705 46.7646 55.9712 46.8947 55.8978C47.0247 55.8244 47.1669 55.7877 47.3211 55.7877C47.4317 55.7877 47.5384 55.8081 47.6412 55.8491C47.744 55.89 47.8343 55.9468 47.9122 56.0195L47.8164 56.1307C47.751 56.0674 47.6754 56.0179 47.5898 55.9824ZM48.2673 55.8016H48.4285V57.2783H49.1481V57.422H48.2673V55.8016ZM50.5885 55.8978C50.7186 55.9712 50.8218 56.0705 50.8981 56.1957C50.9744 56.3208 51.0126 56.4584 51.0126 56.6083C51.0126 56.7582 50.9744 56.8965 50.8981 57.0233C50.8218 57.15 50.7186 57.2504 50.5885 57.3246C50.4585 57.3988 50.3156 57.4359 50.1598 57.4359C50.004 57.4359 49.8611 57.3988 49.7311 57.3246C49.601 57.2504 49.4978 57.15 49.4215 57.0233C49.3452 56.8965 49.307 56.7582 49.307 56.6083C49.307 56.4584 49.3452 56.3208 49.4215 56.1957C49.4978 56.0705 49.601 55.9712 49.7311 55.8978C49.8611 55.8244 50.004 55.7877 50.1598 55.7877C50.3156 55.7877 50.4585 55.8244 50.5885 55.8978ZM49.8163 56.0218C49.7104 56.0821 49.6263 56.164 49.564 56.2675C49.5017 56.3711 49.4706 56.4847 49.4706 56.6083C49.4706 56.7319 49.5017 56.8463 49.564 56.9514C49.6263 57.0565 49.7104 57.1395 49.8163 57.2006C49.9223 57.2616 50.0375 57.2922 50.1621 57.2922C50.2852 57.2922 50.3993 57.2616 50.5044 57.2006C50.6095 57.1395 50.6933 57.0565 50.7556 56.9514C50.8179 56.8463 50.849 56.7319 50.849 56.6083C50.849 56.4847 50.8179 56.3711 50.7556 56.2675C50.6933 56.164 50.6095 56.0821 50.5044 56.0218C50.3993 55.9615 50.2852 55.9314 50.1621 55.9314C50.0375 55.9314 49.9223 55.9615 49.8163 56.0218ZM51.6282 57.1531C51.7193 57.2458 51.8459 57.2922 52.0079 57.2922C52.1699 57.2922 52.296 57.2458 52.3864 57.1531C52.4767 57.0603 52.5219 56.9305 52.5219 56.7636V55.7992H52.6831V56.7636C52.6831 56.9738 52.6235 57.1384 52.5044 57.2574C52.3852 57.3764 52.2197 57.4359 52.0079 57.4359C51.796 57.4359 51.6302 57.3764 51.5102 57.2574C51.3903 57.1384 51.3303 56.9738 51.3303 56.7636V55.7992H51.4915V56.7636C51.4915 56.9305 51.5371 57.0603 51.6282 57.1531ZM54.2426 55.9082C54.3711 55.9793 54.4724 56.077 54.5464 56.2015C54.6204 56.3259 54.6574 56.463 54.6574 56.6129C54.6574 56.7628 54.6204 56.8996 54.5464 57.0233C54.4724 57.1469 54.3708 57.2443 54.2415 57.3153C54.1122 57.3864 53.9689 57.422 53.8116 57.422H53.1597V55.8016H53.8162C53.972 55.8016 54.1141 55.8371 54.2426 55.9082ZM54.1597 57.1902C54.2625 57.1314 54.3439 57.0515 54.4039 56.9502C54.4638 56.849 54.4938 56.7366 54.4938 56.6129C54.4938 56.4893 54.4634 56.3765 54.4027 56.2745C54.3419 56.1725 54.2598 56.0921 54.1562 56.0334C54.0526 55.9747 53.9385 55.9453 53.8139 55.9453H53.3209V57.2783H53.8209C53.944 57.2783 54.0569 57.2489 54.1597 57.1902ZM56.8746 57.422L56.6807 56.9908H55.7741L55.5826 57.422H55.4097L56.1456 55.8016H56.3139L57.0498 57.422H56.8746ZM55.8372 56.8471H56.6176L56.2251 55.9708L55.8372 56.8471ZM58.4657 56.6292H58.6082V57.2226C58.5288 57.2891 58.4365 57.3412 58.3313 57.3791C58.2262 57.417 58.1191 57.4359 58.0101 57.4359C57.8559 57.4359 57.7137 57.3988 57.5837 57.3246C57.4536 57.2504 57.3504 57.15 57.2741 57.0233C57.1978 56.8965 57.1596 56.7582 57.1596 56.6083C57.1596 56.4584 57.1978 56.3208 57.2741 56.1957C57.3504 56.0705 57.4544 55.9712 57.586 55.8978C57.7176 55.8244 57.8613 55.7877 58.0171 55.7877C58.1277 55.7877 58.2348 55.807 58.3383 55.8456C58.4419 55.8842 58.5334 55.9383 58.6129 56.0079L58.5194 56.1215C58.4524 56.0597 58.3753 56.0121 58.2881 55.9789C58.2009 55.9457 58.1105 55.9291 58.0171 55.9291C57.8909 55.9291 57.7749 55.9596 57.669 56.0206C57.563 56.0817 57.4789 56.164 57.4166 56.2675C57.3543 56.3711 57.3232 56.4847 57.3232 56.6083C57.3232 56.7335 57.3543 56.8482 57.4166 56.9525C57.4789 57.0569 57.5634 57.1395 57.6701 57.2006C57.7768 57.2616 57.8933 57.2922 58.0194 57.2922C58.0973 57.2922 58.1748 57.2794 58.2519 57.2539C58.329 57.2284 58.4002 57.1925 58.4657 57.1461V56.6292ZM59.0825 55.8016H60.1759V55.9453H59.2437V56.5248H60.0778V56.6686H59.2437V57.2783H60.2063V57.422H59.0825V55.8016ZM61.7857 55.8016H61.9446V57.422H61.774L60.7623 56.0496V57.422H60.6011V55.8016H60.7717L61.7857 57.1739V55.8016ZM62.2296 55.7992H63.4702V55.9453H62.9305V57.422H62.7693V55.9453H62.2296V55.7992Z" fill="white"/>
</g>
<defs>
<filter id="filter0_d_286_2655" x="0" y="0" width="92.4445" height="101" filterUnits="userSpaceOnUse" color-interpolation-filters="sRGB">
<feFlood flood-opacity="0" result="BackgroundImageFix"/>
<feColorMatrix in="SourceAlpha" type="matrix" values="0 0 0 0 0 0 0 0 0 0 0 0 0 0 0 0 0 0 127 0" result="hardAlpha"/>
<feOffset dy="8"/>
<feGaussianBlur stdDeviation="6"/>
<feComposite in2="hardAlpha" operator="out"/>
<feColorMatrix type="matrix" values="0 0 0 0 0 0 0 0 0 0 0 0 0 0 0 0 0 0 0.22 0"/>
<feBlend mode="normal" in2="BackgroundImageFix" result="effect1_dropShadow_286_2655"/>
<feBlend mode="normal" in="SourceGraphic" in2="effect1_dropShadow_286_2655" result="shape"/>
</filter>
</defs>
</svg>
